<svg xmlns="http://www.w3.org/2000/svg" width="415.344" height="33.218" viewBox="0 0 415.344 33.218">
  <metadata><?xpacket begin="﻿" id="W5M0MpCehiHzreSzNTczkc9d"?>
<x:xmpmeta xmlns:x="adobe:ns:meta/" x:xmptk="Adobe XMP Core 5.6-c138 79.159824, 2016/09/14-01:09:01        ">
   <rdf:RDF xmlns:rdf="http://www.w3.org/1999/02/22-rdf-syntax-ns#">
      <rdf:Description rdf:about=""/>
   </rdf:RDF>
</x:xmpmeta>
                                                                                                    
                                                                                                    
                                                                                                    
                                                                                                    
                                                                                                    
                                                                                                    
                                                                                                    
                                                                                                    
                                                                                                    
                                                                                                    
                                                                                                    
                                                                                                    
                                                                                                    
                                                                                                    
                                                                                                    
                                                                                                    
                                                                                                    
                                                                                                    
                                                                                                    
                                                                                                    
                           
<?xpacket end="w"?></metadata>
<defs>
    <style>
      .cls-1 {
        fill: #ffbb29;
        fill-rule: evenodd;
      }
    </style>
  </defs>
  <path id="ИП_Хмелевской_Д.А._" data-name="ИП Хмелевской Д.А. " class="cls-1" d="M423.5,109.34h9.791l11.3-17.78h0.255l-3.209,17.78h6.847l4.861-27h-9.475l-11.628,17.781H432l3.2-17.781h-6.838Zm36.331-27-4.859,27h7.2l3.743-20.733h9.392l-3.743,20.733h7.2l4.859-27H459.834Zm60.73,0-6.7,9.9-3.059-9.9h-8.42l5.221,13.1-10.591,13.9h8.464l7.2-10.406,3.5,10.406h8.385l-5.546-13.9,9.826-13.1h-8.279ZM536.011,95.3h-0.176l-2.522,14.036h-5.544l3.383-18.9h9.032l0.835,11.593H541.3l4.938-11.593h9.032l-3.382,18.9h-5.545L548.865,95.3h-0.184l-6.406,14.036h-4.894Zm30.174-.176a3.84,3.84,0,0,1,2.4-.58,5.125,5.125,0,0,1,2.122.312,1.464,1.464,0,0,1,.62,1.446q0,0.22-.149,1.231H565.1A4.222,4.222,0,0,1,566.185,95.128Zm3.067,9.695a5.637,5.637,0,0,1-2.461.413,3.259,3.259,0,0,1-1.991-.457,2,2,0,0,1-.567-1.635,11.6,11.6,0,0,1,.246-2.188h12.279l0.184-1.046a24.017,24.017,0,0,0,.431-4.069,6.19,6.19,0,0,0-.791-3.388,4.289,4.289,0,0,0-2.5-1.723,16.77,16.77,0,0,0-4.588-.505,19.022,19.022,0,0,0-4.759.5,7.162,7.162,0,0,0-3.076,1.6,7.909,7.909,0,0,0-1.934,2.922,24.4,24.4,0,0,0-1.252,4.667,27.1,27.1,0,0,0-.431,3.92,7.135,7.135,0,0,0,.431,2.636,3.977,3.977,0,0,0,1.362,1.767,6.3,6.3,0,0,0,2.461,1.006,18.3,18.3,0,0,0,3.7.321q4.65,0,6.847-1.116a7.01,7.01,0,0,0,3.524-5.405H570.28A2.236,2.236,0,0,1,569.252,104.823Zm14.667-3.861a7.806,7.806,0,0,1-1.081,3.025,2.567,2.567,0,0,1-2.268,1.038,11.026,11.026,0,0,1-1.256-.07l-0.791,4.456a20.209,20.209,0,0,0,2.628.149,8.155,8.155,0,0,0,5.55-1.907q2.193-1.908,3.019-6.592l1.116-6.082H595.3l-2.593,14.361H598.9l3.383-18.9H585.791Zm29.319-5.834a3.84,3.84,0,0,1,2.4-.58,5.131,5.131,0,0,1,2.123.312,1.466,1.466,0,0,1,.619,1.446q0,0.22-.149,1.231h-6.082A4.222,4.222,0,0,1,613.238,95.128Zm3.067,9.695a5.634,5.634,0,0,1-2.461.413,3.259,3.259,0,0,1-1.991-.457,2,2,0,0,1-.567-1.635,11.528,11.528,0,0,1,.247-2.188h12.278L624,99.91a24.017,24.017,0,0,0,.431-4.069,6.19,6.19,0,0,0-.791-3.388,4.289,4.289,0,0,0-2.5-1.723,16.77,16.77,0,0,0-4.588-.505,19.022,19.022,0,0,0-4.759.5,7.162,7.162,0,0,0-3.076,1.6,7.909,7.909,0,0,0-1.934,2.922,24.4,24.4,0,0,0-1.252,4.667,27.1,27.1,0,0,0-.431,3.92,7.135,7.135,0,0,0,.431,2.636,3.977,3.977,0,0,0,1.362,1.767,6.307,6.307,0,0,0,2.461,1.006,18.306,18.306,0,0,0,3.7.321q4.65,0,6.847-1.116a7.01,7.01,0,0,0,3.524-5.405h-6.082A2.236,2.236,0,0,1,616.3,104.823Zm21.435-3.331a3.37,3.37,0,0,1,1.586.272,1.123,1.123,0,0,1,.47,1.064q0,0.114-.07.606a2.214,2.214,0,0,1-.791,1.5,3.373,3.373,0,0,1-1.872.4H633.75l0.685-3.849h3.305Zm-10.547,7.848h10.626a14.16,14.16,0,0,0,4.069-.479,4.738,4.738,0,0,0,2.457-1.665,7.7,7.7,0,0,0,1.279-3.331,5.5,5.5,0,0,0,.114-1.073q0-2.874-3.059-3.383V99.259a5.351,5.351,0,0,0,2.549-1.292,4.749,4.749,0,0,0,1.231-2.593,8.651,8.651,0,0,0,.105-1.266,3,3,0,0,0-1.441-2.848,8.975,8.975,0,0,0-4.316-.817h-10.23Zm11.7-14.9q1.662,0,1.661,1.113a4.965,4.965,0,0,1-.07.544,1.9,1.9,0,0,1-.646,1.3,3.057,3.057,0,0,1-1.622.316h-3.1l0.615-3.27h3.164Zm22.96,9.259a1.64,1.64,0,0,1-.932.839,5.883,5.883,0,0,1-2.043.264,3.381,3.381,0,0,1-1.833-.356,1.826,1.826,0,0,1-.5-1.551,23.387,23.387,0,0,1,1.2-6.205,2.612,2.612,0,0,1,1.085-1.371,3.958,3.958,0,0,1,1.819-.343,3.385,3.385,0,0,1,2.338.536,1.233,1.233,0,0,1,.29.905,4.849,4.849,0,0,1-.14,1.116h6.187a13.611,13.611,0,0,0,.22-2.276,4.24,4.24,0,0,0-3.648-4.68,22.032,22.032,0,0,0-4.385-.356,15.959,15.959,0,0,0-4.76.6,7.262,7.262,0,0,0-3.058,1.793,8.519,8.519,0,0,0-1.837,2.927A24.191,24.191,0,0,0,650.7,99.91a26.9,26.9,0,0,0-.466,4.174,6.054,6.054,0,0,0,.756,3.27,4.192,4.192,0,0,0,2.448,1.7,16.412,16.412,0,0,0,4.574.51,24.3,24.3,0,0,0,4.311-.312,7.624,7.624,0,0,0,2.852-1.094,6.142,6.142,0,0,0,2.092-2.3,14.029,14.029,0,0,0,1.292-4.073h-6.187A8.987,8.987,0,0,1,661.851,103.7Zm13.327-13.258-3.384,18.9h6.2l1.371-7.664h1.081l3.164,7.664h7.234l-4.79-9.826L693,90.444h-6.8l-5,7.093h-1.081l1.257-7.093h-6.2Zm26.926,0.22a6.9,6.9,0,0,0-3.091,1.494,7.407,7.407,0,0,0-1.908,2.892,26.717,26.717,0,0,0-1.266,4.86,25.94,25.94,0,0,0-.466,4.245,5.8,5.8,0,0,0,.783,3.252,4.309,4.309,0,0,0,2.554,1.661,18.8,18.8,0,0,0,4.832.492,18.333,18.333,0,0,0,6.146-.8,5.967,5.967,0,0,0,3.223-2.809,20.851,20.851,0,0,0,1.833-6.046,27.781,27.781,0,0,0,.51-4.57,5.42,5.42,0,0,0-.778-3.151,4.171,4.171,0,0,0-2.537-1.534,21.649,21.649,0,0,0-4.9-.431A22.637,22.637,0,0,0,702.1,90.664Zm5.776,4.482a1.338,1.338,0,0,1,.822.593,2.341,2.341,0,0,1,.25,1.182,18.59,18.59,0,0,1-.395,2.988,26.1,26.1,0,0,1-.545,2.553,4.2,4.2,0,0,1-.668,1.441,2.053,2.053,0,0,1-1.059.708,6.441,6.441,0,0,1-1.762.193,4.2,4.2,0,0,1-2.233-.422,1.857,1.857,0,0,1-.615-1.635,20.344,20.344,0,0,1,.36-2.838,18.017,18.017,0,0,1,.813-3.2A2.485,2.485,0,0,1,704,95.357a5.312,5.312,0,0,1,2.289-.378A5.936,5.936,0,0,1,707.88,95.146Zm24.687,2.531h-0.185l-7.163,11.663h-7.093l3.384-18.9h5.546l-2.048,11.593h0.29l6.908-11.593h7.2l-3.384,18.9h-5.546ZM732.83,85.43a4.106,4.106,0,0,1-2.065.4,3.939,3.939,0,0,1-1.71-.272,1.147,1.147,0,0,1-.522-1.125q0-.158.07-0.721H725.94a7.584,7.584,0,0,0-.141,1.477,2.877,2.877,0,0,0,1.081,2.58,6.029,6.029,0,0,0,3.314.725,7.367,7.367,0,0,0,4.267-1.015,5.621,5.621,0,0,0,1.92-3.766h-2.663A2.368,2.368,0,0,1,732.83,85.43Zm23.683,17.714-2.232,12.428h6.8l1.116-6.232h14.185l-1.116,6.232h6.838l2.233-12.428h-2.233l3.744-20.8h-20.8l-1.7,9.466q-0.369,2.092-.843,3.854a23.535,23.535,0,0,1-1.033,3.072,15.62,15.62,0,0,1-1.244,2.369,15.26,15.26,0,0,1-1.591,2.043h-2.127ZM777.5,88.537l-2.628,14.607h-8.965a19.673,19.673,0,0,0,1.771-2.87,21.655,21.655,0,0,0,1.358-3.489,39.4,39.4,0,0,0,1.046-4.548l0.65-3.7H777.5Zm12.559,14.537-1.118,6.266h5.835l1.117-6.266h-5.834Zm29.888,6.266H827.3l-3.349-27H813l-12.955,27h7.488l2.163-4.64h9.676Zm-7.778-9.9,5.4-11.707h0.071l1.221,11.707h-6.7Zm20.838,3.63-1.117,6.266h5.834l1.118-6.266h-5.835Z" transform="translate(-423.5 -82.344)"/>
</svg>
